<svg width="707" height="141" viewBox="0 0 707 141" fill="none" xmlns="http://www.w3.org/2000/svg">
<path fill-rule="evenodd" clip-rule="evenodd" d="M296.249 106.758C315.55 106.758 331.043 91.652 331.043 72.0792C331.043 52.5065 315.55 37.4 296.249 37.4C276.949 37.4 261.456 52.5065 261.456 72.0792C261.456 91.652 276.949 106.758 296.249 106.758ZM296.249 87.5798C287.715 87.5798 281.15 81.4058 281.15 72.0792C281.15 62.7526 287.715 56.5787 296.249 56.5787C304.784 56.5787 311.349 62.7526 311.349 72.0792C311.349 81.4058 304.784 87.5798 296.249 87.5798ZM362.241 45.413C366.574 40.4213 373.008 37.4 381.804 37.4C399.004 37.4 413.185 52.5065 413.185 72.0792C413.185 91.652 399.004 106.758 381.804 106.758C381.737 106.758 381.62 106.764 381.46 106.772L381.457 106.772L381.457 106.772C379.42 106.871 370.288 107.313 362.241 101.167V125.294H342.547V39.2391H362.241V45.413ZM362.241 72.0792C362.241 81.9313 368.806 88.1052 377.866 88.1052C386.925 88.1052 393.49 81.9313 393.49 72.0792C393.49 62.2272 386.925 56.0532 377.866 56.0532C368.806 56.0532 362.241 62.2272 362.241 72.0792ZM527.372 45.413C531.705 40.4213 538.139 37.4 546.935 37.4C564.135 37.4 578.316 52.5065 578.316 72.0792C578.316 91.652 564.135 106.758 546.935 106.758C546.867 106.758 546.75 106.764 546.588 106.772C544.551 106.871 535.419 107.313 527.372 101.167V125.294H507.678V39.2391H527.372V45.413ZM527.372 72.0792C527.372 81.9313 533.937 88.1052 542.997 88.1052C552.056 88.1052 558.621 81.9313 558.621 72.0792C558.621 62.2272 552.056 56.0532 542.997 56.0532C533.937 56.0532 527.372 62.2272 527.372 72.0792ZM686.605 46.6148V38.843H666.911V105.998H686.605V76.3101C686.605 63.3054 698.928 60.6215 706.3 60.6215V39.0038C698.028 39.0038 690.45 41.4545 686.605 46.6148ZM608.17 81.435H654.781C655.306 78.9392 655.569 76.312 655.569 73.5534C655.569 53.718 641.389 38.8742 622.219 38.8742C601.474 38.8742 587.294 53.9807 587.294 73.5534C587.294 93.1262 601.212 108.233 623.663 108.233C639.732 108.233 647.862 100.512 652.537 95.8371L636.531 85.6386C633.837 88.8246 629.309 90.6303 623.926 90.6303C616.705 90.6303 610.665 88.2658 608.17 81.435ZM607.776 65.2483C611.019 59.9465 614.705 56.3452 622.088 56.3452C626.869 56.3452 632.398 57.7349 636.005 65.2483H607.776ZM473.107 39.2389V44.7991C466.934 38.8742 461.199 38.8742 453.543 38.8742C436.343 38.8742 422.163 53.9807 422.163 73.5534C422.163 93.1262 436.343 108.233 453.543 108.233C459.93 108.233 466.565 108.233 473.107 100.957V108.605H492.801V39.2389H473.107ZM457.482 89.5794C448.423 89.5794 441.858 83.4055 441.858 73.5534C441.858 63.7014 448.423 57.5274 457.482 57.5274C466.542 57.5274 473.107 63.7014 473.107 73.5534C473.107 83.4055 466.542 89.5794 457.482 89.5794ZM207.07 46.8872C210.615 42.0269 217.18 38.8742 225.845 38.8742C239.106 38.8742 250.398 48.3322 250.398 66.0659V106.394H230.703V68.9558C230.703 60.8115 225.583 57.002 219.28 57.002C212.059 57.002 207.07 61.2055 207.07 70.5322V106.394H187.375V39.2389H207.07V46.8872Z" fill="#222835"/>
<rect x="0.375" y="116.876" width="165.286" height="33.0572" transform="rotate(-45 0.375 116.876)" fill="#2E62D9"/>
<rect x="23.75" width="165.286" height="33.0572" transform="rotate(45 23.75 0)" fill="#FC5454"/>
<rect x="70.5585" y="46.8096" width="32.9092" height="33.0572" transform="rotate(45 70.5585 46.8096)" fill="#2D2047"/>
</svg>
